<svg xmlns="http://www.w3.org/2000/svg" viewBox="0 0 64 64" width="100%" height="100%" preserveAspectRatio="xMidYMid meet" aria-hidden="true">
  <rect width="64" height="64" fill="#E8E8E8"/>
  <g transform="translate(10 10) scale(1.833)" stroke="#6B6B6B" stroke-width="1.1" stroke-linecap="round" stroke-linejoin="round">
    <path d="M11 21.73a2 2 0 0 0 2 0l7-4A2 2 0 0 0 21 16V8a2 2 0 0 0-1-1.73l-7-4a2 2 0 0 0-2 0l-7 4A2 2 0 0 0 3 8v8a2 2 0 0 0 1 1.73z" fill="#6B6B6B" fill-opacity="0.2"/>
    <path d="M12 22V12" fill="none"/>
    <polyline points="3.29 7 12 12 20.71 7" fill="none"/>
    <path d="m7.5 4.27 9 5.15" fill="none"/>
  </g>
</svg>
